<mxfile host="app.diagrams.net" agent="Mozilla/5.0 (Windows NT 10.0; Win64; x64) AppleWebKit/537.36 (KHTML, like Gecko) Chrome/140.0.0.0 Safari/537.36" version="28.2.2">
  <diagram name="PÃ¡gina-1" id="Irt5l1I5bI9b88GJLTDq">
    <mxGraphModel dx="1105" dy="473" grid="1" gridSize="10" guides="1" tooltips="1" connect="1" arrows="1" fold="1" page="1" pageScale="1" pageWidth="827" pageHeight="1169" math="0" shadow="0">
      <root>
        <mxCell id="0" />
        <mxCell id="1" parent="0" />
        <mxCell id="6hIjJxEAkLkQZOuL5WtT-20" style="edgeStyle=none;shape=connector;rounded=0;orthogonalLoop=1;jettySize=auto;html=1;exitX=1;exitY=0.5;exitDx=0;exitDy=0;strokeColor=default;align=center;verticalAlign=middle;fontFamily=Helvetica;fontSize=12;fontColor=default;labelBackgroundColor=default;endArrow=none;" edge="1" parent="1" source="6hIjJxEAkLkQZOuL5WtT-1" target="6hIjJxEAkLkQZOuL5WtT-11">
          <mxGeometry relative="1" as="geometry" />
        </mxCell>
        <mxCell id="6hIjJxEAkLkQZOuL5WtT-1" value="Profesor" style="whiteSpace=wrap;html=1;align=center;" vertex="1" parent="1">
          <mxGeometry x="130" y="120" width="100" height="40" as="geometry" />
        </mxCell>
        <mxCell id="6hIjJxEAkLkQZOuL5WtT-8" style="edgeStyle=none;shape=connector;rounded=0;orthogonalLoop=1;jettySize=auto;html=1;exitX=0.5;exitY=1;exitDx=0;exitDy=0;entryX=0.5;entryY=0;entryDx=0;entryDy=0;strokeColor=default;align=center;verticalAlign=middle;fontFamily=Helvetica;fontSize=12;fontColor=default;labelBackgroundColor=default;endArrow=none;" edge="1" parent="1" source="6hIjJxEAkLkQZOuL5WtT-3" target="6hIjJxEAkLkQZOuL5WtT-1">
          <mxGeometry relative="1" as="geometry" />
        </mxCell>
        <mxCell id="6hIjJxEAkLkQZOuL5WtT-3" value="dni" style="ellipse;whiteSpace=wrap;html=1;align=center;fontStyle=4;" vertex="1" parent="1">
          <mxGeometry x="40" y="60" width="50" height="20" as="geometry" />
        </mxCell>
        <mxCell id="6hIjJxEAkLkQZOuL5WtT-22" style="edgeStyle=none;shape=connector;rounded=0;orthogonalLoop=1;jettySize=auto;html=1;exitX=0.5;exitY=1;exitDx=0;exitDy=0;entryX=0.5;entryY=0;entryDx=0;entryDy=0;strokeColor=default;align=center;verticalAlign=middle;fontFamily=Helvetica;fontSize=12;fontColor=default;labelBackgroundColor=default;endArrow=none;" edge="1" parent="1" source="6hIjJxEAkLkQZOuL5WtT-9" target="6hIjJxEAkLkQZOuL5WtT-1">
          <mxGeometry relative="1" as="geometry" />
        </mxCell>
        <mxCell id="6hIjJxEAkLkQZOuL5WtT-9" value="nombre" style="ellipse;whiteSpace=wrap;html=1;align=center;dashed=0;strokeColor=default;strokeWidth=1;verticalAlign=middle;spacingLeft=6;spacingTop=0;fontFamily=Helvetica;fontSize=12;fontColor=default;labelBackgroundColor=default;fillColor=default;" vertex="1" parent="1">
          <mxGeometry x="120" y="50" width="60" height="30" as="geometry" />
        </mxCell>
        <mxCell id="6hIjJxEAkLkQZOuL5WtT-15" style="edgeStyle=none;shape=connector;rounded=0;orthogonalLoop=1;jettySize=auto;html=1;exitX=1;exitY=0.5;exitDx=0;exitDy=0;entryX=0;entryY=0.5;entryDx=0;entryDy=0;strokeColor=default;align=center;verticalAlign=middle;fontFamily=Helvetica;fontSize=12;fontColor=default;labelBackgroundColor=default;endArrow=none;" edge="1" parent="1" source="6hIjJxEAkLkQZOuL5WtT-11" target="6hIjJxEAkLkQZOuL5WtT-12">
          <mxGeometry relative="1" as="geometry" />
        </mxCell>
        <mxCell id="6hIjJxEAkLkQZOuL5WtT-17" style="edgeStyle=none;shape=connector;rounded=0;orthogonalLoop=1;jettySize=auto;html=1;exitX=1;exitY=0.5;exitDx=0;exitDy=0;entryX=0;entryY=0.5;entryDx=0;entryDy=0;strokeColor=default;align=center;verticalAlign=middle;fontFamily=Helvetica;fontSize=12;fontColor=default;labelBackgroundColor=default;endArrow=none;" edge="1" parent="1" source="6hIjJxEAkLkQZOuL5WtT-11" target="6hIjJxEAkLkQZOuL5WtT-14">
          <mxGeometry relative="1" as="geometry" />
        </mxCell>
        <mxCell id="6hIjJxEAkLkQZOuL5WtT-18" style="edgeStyle=none;shape=connector;rounded=0;orthogonalLoop=1;jettySize=auto;html=1;exitX=1;exitY=0.5;exitDx=0;exitDy=0;entryX=0;entryY=0.5;entryDx=0;entryDy=0;strokeColor=default;align=center;verticalAlign=middle;fontFamily=Helvetica;fontSize=12;fontColor=default;labelBackgroundColor=default;endArrow=none;" edge="1" parent="1" source="6hIjJxEAkLkQZOuL5WtT-11" target="6hIjJxEAkLkQZOuL5WtT-13">
          <mxGeometry relative="1" as="geometry" />
        </mxCell>
        <mxCell id="6hIjJxEAkLkQZOuL5WtT-11" value="direccion" style="ellipse;whiteSpace=wrap;html=1;align=center;dashed=0;strokeColor=default;strokeWidth=1;verticalAlign=middle;spacingLeft=6;spacingTop=0;fontFamily=Helvetica;fontSize=12;fontColor=default;labelBackgroundColor=default;fillColor=default;" vertex="1" parent="1">
          <mxGeometry x="280" y="80" width="70" height="30" as="geometry" />
        </mxCell>
        <mxCell id="6hIjJxEAkLkQZOuL5WtT-12" value="calle" style="ellipse;whiteSpace=wrap;html=1;align=center;dashed=0;strokeColor=default;strokeWidth=1;verticalAlign=middle;spacingLeft=6;spacingTop=0;fontFamily=Helvetica;fontSize=12;fontColor=default;labelBackgroundColor=default;fillColor=default;" vertex="1" parent="1">
          <mxGeometry x="370" y="20" width="46" height="30" as="geometry" />
        </mxCell>
        <mxCell id="6hIjJxEAkLkQZOuL5WtT-13" value="cp" style="ellipse;whiteSpace=wrap;html=1;align=center;dashed=0;strokeColor=default;strokeWidth=1;verticalAlign=middle;spacingLeft=6;spacingTop=0;fontFamily=Helvetica;fontSize=12;fontColor=default;labelBackgroundColor=default;fillColor=default;" vertex="1" parent="1">
          <mxGeometry x="376" y="90" width="40" height="20" as="geometry" />
        </mxCell>
        <mxCell id="6hIjJxEAkLkQZOuL5WtT-14" value="nro" style="ellipse;whiteSpace=wrap;html=1;align=center;dashed=0;strokeColor=default;strokeWidth=1;verticalAlign=middle;spacingLeft=6;spacingTop=0;fontFamily=Helvetica;fontSize=12;fontColor=default;labelBackgroundColor=default;fillColor=default;" vertex="1" parent="1">
          <mxGeometry x="370" y="60" width="50" height="20" as="geometry" />
        </mxCell>
        <mxCell id="6hIjJxEAkLkQZOuL5WtT-24" style="edgeStyle=none;shape=connector;rounded=0;orthogonalLoop=1;jettySize=auto;html=1;exitX=0.5;exitY=1;exitDx=0;exitDy=0;entryX=0.5;entryY=0;entryDx=0;entryDy=0;strokeColor=default;align=center;verticalAlign=middle;fontFamily=Helvetica;fontSize=12;fontColor=default;labelBackgroundColor=default;endArrow=none;" edge="1" parent="1" source="6hIjJxEAkLkQZOuL5WtT-21" target="6hIjJxEAkLkQZOuL5WtT-1">
          <mxGeometry relative="1" as="geometry" />
        </mxCell>
        <mxCell id="6hIjJxEAkLkQZOuL5WtT-21" value="telefono" style="ellipse;shape=doubleEllipse;margin=3;whiteSpace=wrap;html=1;align=center;dashed=0;strokeColor=default;strokeWidth=1;verticalAlign=middle;spacingLeft=6;spacingTop=0;fontFamily=Helvetica;fontSize=12;fontColor=default;labelBackgroundColor=default;fillColor=default;" vertex="1" parent="1">
          <mxGeometry x="210" y="50" width="70" height="30" as="geometry" />
        </mxCell>
        <mxCell id="6hIjJxEAkLkQZOuL5WtT-29" style="edgeStyle=none;shape=connector;rounded=0;orthogonalLoop=1;jettySize=auto;html=1;exitX=1;exitY=0.5;exitDx=0;exitDy=0;entryX=0;entryY=0.5;entryDx=0;entryDy=0;strokeColor=default;align=center;verticalAlign=middle;fontFamily=Helvetica;fontSize=12;fontColor=default;labelBackgroundColor=default;endArrow=none;" edge="1" parent="1" source="6hIjJxEAkLkQZOuL5WtT-25" target="6hIjJxEAkLkQZOuL5WtT-28">
          <mxGeometry relative="1" as="geometry" />
        </mxCell>
        <mxCell id="6hIjJxEAkLkQZOuL5WtT-30" style="edgeStyle=none;shape=connector;rounded=0;orthogonalLoop=1;jettySize=auto;html=1;exitX=1;exitY=0.5;exitDx=0;exitDy=0;entryX=0;entryY=0.5;entryDx=0;entryDy=0;strokeColor=default;align=center;verticalAlign=middle;fontFamily=Helvetica;fontSize=12;fontColor=default;labelBackgroundColor=default;endArrow=none;" edge="1" parent="1" source="6hIjJxEAkLkQZOuL5WtT-25" target="6hIjJxEAkLkQZOuL5WtT-26">
          <mxGeometry relative="1" as="geometry" />
        </mxCell>
        <mxCell id="6hIjJxEAkLkQZOuL5WtT-32" style="edgeStyle=none;shape=connector;rounded=0;orthogonalLoop=1;jettySize=auto;html=1;exitX=0.5;exitY=0;exitDx=0;exitDy=0;entryX=0.5;entryY=1;entryDx=0;entryDy=0;strokeColor=default;align=center;verticalAlign=middle;fontFamily=Helvetica;fontSize=12;fontColor=default;labelBackgroundColor=default;endArrow=none;" edge="1" parent="1" source="6hIjJxEAkLkQZOuL5WtT-33" target="6hIjJxEAkLkQZOuL5WtT-1">
          <mxGeometry relative="1" as="geometry" />
        </mxCell>
        <mxCell id="6hIjJxEAkLkQZOuL5WtT-25" value="Modulo" style="whiteSpace=wrap;html=1;align=center;dashed=0;strokeColor=default;strokeWidth=1;verticalAlign=middle;spacingLeft=6;spacingTop=0;fontFamily=Helvetica;fontSize=12;fontColor=default;labelBackgroundColor=default;fillColor=default;" vertex="1" parent="1">
          <mxGeometry x="145" y="270" width="70" height="30" as="geometry" />
        </mxCell>
        <mxCell id="6hIjJxEAkLkQZOuL5WtT-26" value="nombre" style="ellipse;whiteSpace=wrap;html=1;align=center;dashed=0;strokeColor=default;strokeWidth=1;verticalAlign=middle;spacingLeft=6;spacingTop=0;fontFamily=Helvetica;fontSize=12;fontColor=default;labelBackgroundColor=default;fillColor=default;" vertex="1" parent="1">
          <mxGeometry x="265" y="250" width="50" height="30" as="geometry" />
        </mxCell>
        <mxCell id="6hIjJxEAkLkQZOuL5WtT-28" value="idModulo" style="ellipse;whiteSpace=wrap;html=1;align=center;fontStyle=4;dashed=0;strokeColor=default;strokeWidth=1;verticalAlign=middle;spacingLeft=6;spacingTop=0;fontFamily=Helvetica;fontSize=12;fontColor=default;labelBackgroundColor=default;fillColor=default;" vertex="1" parent="1">
          <mxGeometry x="260" y="290" width="60" height="30" as="geometry" />
        </mxCell>
        <mxCell id="6hIjJxEAkLkQZOuL5WtT-34" value="" style="edgeStyle=none;shape=connector;rounded=0;orthogonalLoop=1;jettySize=auto;html=1;exitX=0.5;exitY=0;exitDx=0;exitDy=0;entryX=0.5;entryY=1;entryDx=0;entryDy=0;strokeColor=default;align=center;verticalAlign=middle;fontFamily=Helvetica;fontSize=12;fontColor=default;labelBackgroundColor=default;endArrow=none;" edge="1" parent="1" source="6hIjJxEAkLkQZOuL5WtT-25" target="6hIjJxEAkLkQZOuL5WtT-33">
          <mxGeometry relative="1" as="geometry">
            <mxPoint x="180" y="270" as="sourcePoint" />
            <mxPoint x="180" y="160" as="targetPoint" />
          </mxGeometry>
        </mxCell>
        <mxCell id="6hIjJxEAkLkQZOuL5WtT-33" value="Impartir" style="shape=rhombus;perimeter=rhombusPerimeter;whiteSpace=wrap;html=1;align=center;dashed=0;strokeColor=default;strokeWidth=1;verticalAlign=middle;spacingLeft=6;spacingTop=0;fontFamily=Helvetica;fontSize=12;fontColor=default;labelBackgroundColor=default;fillColor=default;" vertex="1" parent="1">
          <mxGeometry x="160" y="200" width="40" height="30" as="geometry" />
        </mxCell>
        <mxCell id="6hIjJxEAkLkQZOuL5WtT-39" value="N" style="text;strokeColor=none;fillColor=none;spacingLeft=4;spacingRight=4;overflow=hidden;rotatable=0;points=[[0,0.5],[1,0.5]];portConstraint=eastwest;fontSize=12;whiteSpace=wrap;html=1;fontFamily=Helvetica;fontColor=default;labelBackgroundColor=default;" vertex="1" parent="1">
          <mxGeometry x="175" y="250" width="25" height="20" as="geometry" />
        </mxCell>
        <mxCell id="6hIjJxEAkLkQZOuL5WtT-40" value="1" style="text;strokeColor=none;fillColor=none;spacingLeft=4;spacingRight=4;overflow=hidden;rotatable=0;points=[[0,0.5],[1,0.5]];portConstraint=eastwest;fontSize=12;whiteSpace=wrap;html=1;fontFamily=Helvetica;fontColor=default;labelBackgroundColor=default;" vertex="1" parent="1">
          <mxGeometry x="180" y="160" width="25" height="20" as="geometry" />
        </mxCell>
      </root>
    </mxGraphModel>
  </diagram>
</mxfile>
